ply
format ascii 1.0
element vertex 21
property float x
property float y
property float z
end_header
4.53476572036743164 -40.6916770935058594 -0.95480036735534668
3.03709292411804199 -26.742462158203125 19.2021656036376953
1.53942024707794189 -12.7932472229003906 39.359130859375
-0.729621350765228271 17.0005340576171875 62.8260231018066406
6.36186456680297852 28.9998264312744141 79.9976272583007812
5.15615558624267578 16.5096435546875 11.0087099075317383
11.8835926055908203 61.082977294921875 24.4233036041259766
16.9508495330810547 87.0825958251953125 28.3651905059814453
19.3573856353759766 102.842422485351562 30.2419242858886719
-0.411815851926803589 25.8936958312988281 0.695311546325683594
-3.09161758422851562 72.6184005737304688 -5.4082036018371582
-3.2925264835357666 99.6541748046875 -6.56226205825805664
-3.20455741882324219 117.242881774902344 -8.50213050842285156
-11.6459760665893555 24.5860023498535156 -14.8126029968261719
-14.9599332809448242 62.5089225769042969 -31.5114459991455078
-17.9360618591308594 85.766021728515625 -40.2645416259765625
-18.0940303802490234 100.0023193359375 -44.9379119873046875
-20.243743896484375 8.13773155212402344 -22.5793933868408203
-29.6180953979492188 35.9645195007324219 -44.3928146362304688
-34.69384765625 50.8546104431152344 -53.2588157653808594
-38.151824951171875 63.0105056762695312 -56.9281349182128906
